tempo=380000 division=384
space=16
always_zero=1
;always_fullword=1
;always_volume=1
zero_merge=0
Chn 1 Note On B5=64  Time=0
Chn 1 Note On D6=64  Time=0
Chn 2 Note On G5=64  Time=0
Chn 1 Note Off B5=0  Time=188
Chn 1 Note Off D6=0  Time=188
Chn 2 Note Off G5=0  Time=188
Chn 1 Note On B5=64  Time=384
Chn 1 Note On D6=64  Time=384
Chn 2 Note On G5=64  Time=384
Chn 1 Note Off B5=0  Time=508
Chn 1 Note Off D6=0  Time=508
Chn 2 Note Off G5=0  Time=508
Chn 1 Note On B5=64  Time=512
Chn 1 Note On D6=64  Time=512
Chn 2 Note On G5=64  Time=512
Chn 1 Note Off B5=0  Time=636
Chn 1 Note Off D6=0  Time=636
Chn 2 Note Off G5=0  Time=636
Chn 1 Note On B5=64  Time=640
Chn 1 Note On D6=64  Time=640
Chn 2 Note On G5=64  Time=640
Chn 1 Note Off B5=0  Time=764
Chn 1 Note Off D6=0  Time=764
Chn 2 Note Off G5=0  Time=764
Chn 1 Note On B5=64  Time=768
Chn 1 Note On E6=64  Time=768
Chn 2 Note On G5=64  Time=768
Chn 2 Note On E5=64  Time=768
Chn 1 Note Off B5=0  Time=956
Chn 1 Note Off E6=0  Time=956
Chn 2 Note Off G5=0  Time=956
Chn 2 Note Off E5=0  Time=956
Chn 1 Note On E6=64  Time=1152
Chn 1 Note On B5=64  Time=1152
Chn 2 Note On E5=64  Time=1152
Chn 2 Note On G5=64  Time=1152
Chn 1 Note Off E6=0  Time=1340
Chn 1 Note Off B5=0  Time=1340
Chn 2 Note Off E5=0  Time=1340
Chn 2 Note Off G5=0  Time=1340
Chn 1 Note On B5=64  Time=1536
Chn 1 Note On F#6=64  Time=1536
Chn 2 Note On F#5=64  Time=1536
Chn 2 Note On D5=64  Time=1536
Chn 2 Note On B4=64  Time=1536
Chn 1 Note Off B5=0  Time=1724
Chn 1 Note Off F#6=0  Time=1724
Chn 2 Note Off F#5=0  Time=1724
Chn 2 Note Off D5=0  Time=1724
Chn 2 Note Off B4=0  Time=1724
Chn 1 Note On B5=64  Time=1920
Chn 1 Note On D6=64  Time=1920
Chn 2 Note On G5=64  Time=1920
Chn 1 Note Off B5=0  Time=2108
Chn 1 Note Off D6=0  Time=2108
Chn 2 Note Off G5=0  Time=2108
Chn 1 Note On B5=64  Time=2304
Chn 1 Note On E6=64  Time=2304
Chn 2 Note On G5=64  Time=2304
Chn 2 Note On E5=64  Time=2304
Chn 1 Note Off B5=0  Time=3068
Chn 1 Note Off E6=0  Time=3068
Chn 2 Note Off G5=0  Time=3068
Chn 2 Note Off E5=0  Time=3068
Chn 1 Note On D6=64  Time=3072
Chn 1 Note On B5=64  Time=3072
Chn 2 Note On G5=64  Time=3072
Chn 1 Note Off D6=0  Time=3260
Chn 1 Note Off B5=0  Time=3260
Chn 2 Note Off G5=0  Time=3260
Chn 1 Note On B5=64  Time=3456
Chn 1 Note On D6=64  Time=3456
Chn 2 Note On G5=64  Time=3456
Chn 1 Note Off B5=0  Time=3580
Chn 1 Note Off D6=0  Time=3580
Chn 2 Note Off G5=0  Time=3580
Chn 1 Note On B5=64  Time=3584
Chn 1 Note On D6=64  Time=3584
Chn 2 Note On G5=64  Time=3584
Chn 1 Note Off B5=0  Time=3708
Chn 1 Note Off D6=0  Time=3708
Chn 2 Note Off G5=0  Time=3708
Chn 1 Note On B5=64  Time=3712
Chn 1 Note On D6=64  Time=3712
Chn 2 Note On G5=64  Time=3712
Chn 1 Note Off B5=0  Time=3836
Chn 1 Note Off D6=0  Time=3836
Chn 2 Note Off G5=0  Time=3836
Chn 1 Note On B5=64  Time=3840
Chn 2 Note On G5=64  Time=3840
Chn 2 Note On E5=64  Time=3840
Chn 1 Note On E6=64  Time=3864
Chn 1 Note Off B5=0  Time=4028
Chn 2 Note Off G5=0  Time=4028
Chn 2 Note Off E5=0  Time=4028
Chn 1 Note Off E6=0  Time=4052
Chn 1 Note On E6=64  Time=4224
Chn 1 Note On B5=64  Time=4224
Chn 2 Note On E5=64  Time=4224
Chn 2 Note On G5=64  Time=4224
Chn 1 Note Off E6=0  Time=4412
Chn 1 Note Off B5=0  Time=4412
Chn 2 Note Off E5=0  Time=4412
Chn 2 Note Off G5=0  Time=4412
Chn 1 Note On B5=64  Time=4608
Chn 1 Note On F#6=64  Time=4608
Chn 2 Note On F#5=64  Time=4608
Chn 2 Note On D5=64  Time=4608
Chn 2 Note On B4=64  Time=4608
Chn 1 Note Off B5=0  Time=4796
Chn 1 Note Off F#6=0  Time=4796
Chn 2 Note Off F#5=0  Time=4796
Chn 2 Note Off D5=0  Time=4796
Chn 2 Note Off B4=0  Time=4796
Chn 1 Note On D6=64  Time=4992
Chn 1 Note On B5=64  Time=4992
Chn 2 Note On G5=64  Time=4992
Chn 1 Note Off D6=0  Time=5180
Chn 1 Note Off B5=0  Time=5180
Chn 2 Note Off G5=0  Time=5180
Chn 1 Note On B5=64  Time=5376
Chn 1 Note On E6=64  Time=5376
Chn 2 Note On G5=64  Time=5376
Chn 2 Note On E5=64  Time=5376
Chn 1 Note Off B5=0  Time=5948
Chn 1 Note Off E6=0  Time=5948
Chn 2 Note Off G5=0  Time=5948
Chn 2 Note Off E5=0  Time=5948
Chn 1 Note On E5=64  Time=6048
Chn 1 Note Off E5=0  Time=6140
Chn 1 Note On C6=64  Time=6144
Chn 2 Note On A2=64  Time=6144
Chn 2 Note On A3=64  Time=6164
Chn 2 Note Off A2=0  Time=6236
Chn 2 Note Off A3=0  Time=6260
Chn 1 Note Off C6=0  Time=6332
Chn 2 Note On G#3=64  Time=6336
Chn 2 Note Off G#3=0  Time=6428
Chn 1 Note On D6=64  Time=6432
Chn 1 Note Off D6=0  Time=6524
Chn 1 Note On C6=64  Time=6528
Chn 2 Note On A3=64  Time=6528
Chn 2 Note Off A3=0  Time=6620
Chn 1 Note Off C6=0  Time=6716
Chn 2 Note On B3=64  Time=6720
Chn 2 Note Off B3=0  Time=6812
Chn 1 Note On B5=64  Time=6816
Chn 1 Note Off B5=0  Time=6908
Chn 1 Note On A5=64  Time=6912
Chn 2 Note On C4=64  Time=6912
Chn 2 Note Off C4=0  Time=7004
Chn 1 Note Off A5=0  Time=7100
Chn 2 Note On C#4=64  Time=7104
Chn 2 Note Off C#4=0  Time=7196
Chn 1 Note On G5=64  Time=7200
Chn 1 Note Off G5=0  Time=7292
Chn 1 Note On F#5=64  Time=7296
Chn 2 Note On D4=64  Time=7296
Chn 2 Note On D3=64  Time=7296
Chn 2 Note Off D4=0  Time=7388
Chn 2 Note Off D3=0  Time=7388
Chn 1 Note Off F#5=0  Time=7484
Chn 2 Note On F#3=64  Time=7488
Chn 2 Note Off F#3=0  Time=7580
Chn 1 Note On D5=64  Time=7584
Chn 1 Note Off D5=0  Time=7676
Chn 1 Note On B5=64  Time=7680
Chn 2 Note On G2=64  Time=7680
Chn 2 Note On G3=64  Time=7704
Chn 2 Note Off G2=0  Time=7772
Chn 2 Note Off G3=0  Time=7796
Chn 1 Note Off B5=0  Time=7868
Chn 2 Note On F#3=64  Time=7872
Chn 2 Note Off F#3=0  Time=7964
Chn 1 Note On C6=64  Time=7968
Chn 1 Note Off C6=0  Time=8060
Chn 1 Note On B5=64  Time=8064
Chn 2 Note On G3=64  Time=8064
Chn 2 Note Off G3=0  Time=8156
Chn 1 Note Off B5=0  Time=8252
Chn 2 Note On A3=64  Time=8256
Chn 2 Note Off A3=0  Time=8348
Chn 1 Note On A5=64  Time=8352
Chn 1 Note Off A5=0  Time=8444
Chn 1 Note On G5=64  Time=8448
Chn 2 Note On B#3=64  Time=8448
Chn 2 Note Off B#3=0  Time=8540
Chn 1 Note Off G5=0  Time=8636
Chn 2 Note On B3=64  Time=8640
Chn 2 Note Off B3=0  Time=8732
Chn 1 Note On F#5=64  Time=8736
Chn 1 Note Off F#5=0  Time=8828
Chn 1 Note On E5=64  Time=8832
Chn 2 Note On C4=64  Time=8832
Chn 2 Note On C3=64  Time=8832
Chn 2 Note Off C4=0  Time=8924
Chn 2 Note Off C3=0  Time=8924
Chn 1 Note Off E5=0  Time=9020
Chn 2 Note On E3=64  Time=9024
Chn 2 Note Off E3=0  Time=9116
Chn 1 Note On G5=64  Time=9120
Chn 1 Note Off G5=0  Time=9212
Chn 1 Note On F#5=64  Time=9216
Chn 2 Note On A3=64  Time=9216
Chn 2 Note On A2=64  Time=9216
Chn 2 Note Off A3=0  Time=9308
Chn 2 Note Off A2=0  Time=9308
Chn 1 Note Off F#5=0  Time=9404
Chn 2 Note On B#3=64  Time=9408
Chn 2 Note On B#2=64  Time=9408
Chn 2 Note Off B#3=0  Time=9500
Chn 2 Note Off B#2=0  Time=9500
Chn 1 Note On E5=64  Time=9504
Chn 1 Note Off E5=0  Time=9596
Chn 1 Note On D#5=64  Time=9600
Chn 2 Note On B3=64  Time=9600
Chn 2 Note On B2=64  Time=9600
Chn 2 Note Off B3=0  Time=9692
Chn 2 Note Off B2=0  Time=9692
Chn 1 Note Off D#5=0  Time=9788
Chn 2 Note On C3=64  Time=9792
Chn 2 Note On C4=64  Time=9792
Chn 2 Note Off C3=0  Time=9884
Chn 2 Note Off C4=0  Time=9884
Chn 1 Note On A5=64  Time=9888
Chn 1 Note Off A5=0  Time=9980
Chn 1 Note On G5=64  Time=9984
Chn 2 Note On C#4=64  Time=9984
Chn 2 Note On C#3=64  Time=9984
Chn 2 Note Off C#4=0  Time=10076
Chn 2 Note Off C#3=0  Time=10076
Chn 1 Note Off G5=0  Time=10172
Chn 2 Note On D#3=64  Time=10176
Chn 2 Note On D#4=64  Time=10176
Chn 2 Note Off D#3=0  Time=10268
Chn 2 Note Off D#4=0  Time=10268
Chn 1 Note On F#5=64  Time=10272
Chn 1 Note Off F#5=0  Time=10364
Chn 1 Note On E5=64  Time=10368
Chn 2 Note On E4=64  Time=10368
Chn 2 Note On E3=64  Time=10368
Chn 2 Note Off E4=0  Time=10460
Chn 2 Note Off E3=0  Time=10460
Chn 1 Note Off E5=0  Time=10556
Chn 2 Note On G3=64  Time=10560
Chn 2 Note On G4=64  Time=10560
Chn 2 Note Off G3=0  Time=10652
Chn 2 Note Off G4=0  Time=10652
Chn 1 Note On B5=64  Time=10656
Chn 1 Note Off B5=0  Time=10748
Chn 1 Note On C6=64  Time=10752
Chn 2 Note On A4=64  Time=10752
Chn 2 Note On A3=64  Time=10752
Chn 2 Note Off A4=0  Time=10844
Chn 2 Note Off A3=0  Time=10844
Chn 1 Note Off C6=0  Time=10940
Chn 2 Note On B3=64  Time=10944
Chn 2 Note On B4=64  Time=10944
Chn 2 Note Off B3=0  Time=11036
Chn 2 Note Off B4=0  Time=11036
Chn 1 Note On B5=64  Time=11040
Chn 1 Note Off B5=0  Time=11132
Chn 1 Note On A5=64  Time=11136
Chn 2 Note On C5=64  Time=11136
Chn 2 Note On C4=64  Time=11136
Chn 2 Note Off C5=0  Time=11228
Chn 2 Note Off C4=0  Time=11228
Chn 1 Note Off A5=0  Time=11324
Chn 2 Note On C#4=64  Time=11328
Chn 2 Note On C#5=64  Time=11328
Chn 2 Note Off C#4=0  Time=11420
Chn 2 Note Off C#5=0  Time=11420
Chn 1 Note On G5=64  Time=11424
Chn 1 Note Off G5=0  Time=11516
Chn 1 Note On F#5=64  Time=11520
Chn 1 Note On A5=64  Time=11520
Chn 1 Note On D6=64  Time=11520
Chn 2 Note On D5=64  Time=11520
Chn 2 Note On D4=64  Time=11520
Chn 1 Note Off F#5=0  Time=11612
Chn 1 Note Off A5=0  Time=11612
Chn 1 Note Off D6=0  Time=11612
Chn 2 Note Off D5=0  Time=11612
Chn 2 Note Off D4=0  Time=11612
Chn 1 Note On A6=64  Time=11808
Chn 1 Note On B6=64  Time=11832
Chn 1 Note On C7=64  Time=11856
Chn 1 Note On C#7=64  Time=11880
Chn 1 Note Off A6=0  Time=11900
Chn 1 Note On D7=64  Time=11904
Chn 2 Note On D5=64  Time=11904
Chn 2 Note On F#5=64  Time=11904
Chn 2 Note On A5=64  Time=11904
Chn 2 Note On D6=64  Time=11904
Chn 1 Note Off B6=0  Time=11924
Chn 1 Note Off C7=0  Time=11948
Chn 1 Note Off C#7=0  Time=11972
Chn 1 Note Off D7=0  Time=11996
Chn 2 Note Off D5=0  Time=11996
Chn 2 Note Off F#5=0  Time=11996
Chn 2 Note Off A5=0  Time=11996
Chn 2 Note Off D6=0  Time=11996
Chn 1 Note On B5=64  Time=12288
Chn 1 Note On D6=64  Time=12288
Chn 2 Note On G5=64  Time=12288
Chn 1 Note Off B5=0  Time=12476
Chn 1 Note Off D6=0  Time=12476
Chn 2 Note Off G5=0  Time=12476
Chn 1 Note On B5=64  Time=12672
Chn 1 Note On D6=64  Time=12672
Chn 2 Note On G5=64  Time=12672
Chn 1 Note Off B5=0  Time=12796
Chn 1 Note Off D6=0  Time=12796
Chn 2 Note Off G5=0  Time=12796
Chn 1 Note On B5=64  Time=12800
Chn 1 Note On D6=64  Time=12800
Chn 2 Note On G5=64  Time=12800
Chn 1 Note Off B5=0  Time=12924
Chn 1 Note Off D6=0  Time=12924
Chn 2 Note Off G5=0  Time=12924
Chn 1 Note On B5=64  Time=12928
Chn 1 Note On D6=64  Time=12928
Chn 2 Note On G5=64  Time=12928
Chn 1 Note Off B5=0  Time=13052
Chn 1 Note Off D6=0  Time=13052
Chn 2 Note Off G5=0  Time=13052
Chn 1 Note On B5=64  Time=13056
Chn 1 Note On E6=64  Time=13056
Chn 2 Note On G5=64  Time=13056
Chn 2 Note On E5=64  Time=13056
Chn 1 Note Off B5=0  Time=13244
Chn 1 Note Off E6=0  Time=13244
Chn 2 Note Off G5=0  Time=13244
Chn 2 Note Off E5=0  Time=13244
Chn 1 Note On E6=64  Time=13440
Chn 1 Note On B5=64  Time=13440
Chn 2 Note On E5=64  Time=13440
Chn 2 Note On G5=64  Time=13440
Chn 1 Note Off E6=0  Time=13628
Chn 1 Note Off B5=0  Time=13628
Chn 2 Note Off E5=0  Time=13628
Chn 2 Note Off G5=0  Time=13628
Chn 1 Note On B5=64  Time=13824
Chn 1 Note On F#6=64  Time=13824
Chn 2 Note On B4=64  Time=13824
Chn 2 Note On D5=64  Time=13848
Chn 2 Note On F#5=64  Time=13872
Chn 1 Note Off B5=0  Time=14012
Chn 1 Note Off F#6=0  Time=14012
Chn 2 Note Off B4=0  Time=14012
Chn 2 Note Off D5=0  Time=14036
Chn 2 Note Off F#5=0  Time=14060
Chn 1 Note On B5=64  Time=14208
Chn 1 Note On D6=64  Time=14208
Chn 2 Note On G5=64  Time=14208
Chn 1 Note Off B5=0  Time=14396
Chn 1 Note Off D6=0  Time=14396
Chn 2 Note Off G5=0  Time=14396
Chn 1 Note On B5=64  Time=14592
Chn 1 Note On E6=64  Time=14592
Chn 2 Note On G5=64  Time=14592
Chn 2 Note On E5=64  Time=14592
Chn 1 Note Off B5=0  Time=15356
Chn 1 Note Off E6=0  Time=15356
Chn 2 Note Off G5=0  Time=15356
Chn 2 Note Off E5=0  Time=15356
Chn 1 Note On D6=64  Time=15360
Chn 1 Note On B5=64  Time=15360
Chn 2 Note On G5=64  Time=15360
Chn 1 Note Off D6=0  Time=15548
Chn 1 Note Off B5=0  Time=15548
Chn 2 Note Off G5=0  Time=15548
Chn 1 Note On B5=64  Time=15744
Chn 1 Note On D6=64  Time=15744
Chn 2 Note On G5=64  Time=15744
Chn 1 Note Off B5=0  Time=15868
Chn 1 Note Off D6=0  Time=15868
Chn 2 Note Off G5=0  Time=15868
Chn 1 Note On B5=64  Time=15872
Chn 1 Note On D6=64  Time=15872
Chn 2 Note On G5=64  Time=15872
Chn 1 Note Off B5=0  Time=15996
Chn 1 Note Off D6=0  Time=15996
Chn 2 Note Off G5=0  Time=15996
Chn 1 Note On B5=64  Time=16000
Chn 1 Note On D6=64  Time=16000
Chn 2 Note On G5=64  Time=16000
Chn 1 Note Off B5=0  Time=16124
Chn 1 Note Off D6=0  Time=16124
Chn 2 Note Off G5=0  Time=16124
Chn 1 Note On B5=64  Time=16128
Chn 2 Note On G5=64  Time=16128
Chn 2 Note On E5=64  Time=16128
Chn 1 Note On E6=64  Time=16152
Chn 1 Note Off B5=0  Time=16316
Chn 2 Note Off G5=0  Time=16316
Chn 2 Note Off E5=0  Time=16316
Chn 1 Note Off E6=0  Time=16340
Chn 1 Note On E6=64  Time=16512
Chn 1 Note On B5=64  Time=16512
Chn 2 Note On E5=64  Time=16512
Chn 2 Note On G5=64  Time=16512
Chn 1 Note Off E6=0  Time=16700
Chn 1 Note Off B5=0  Time=16700
Chn 2 Note Off E5=0  Time=16700
Chn 2 Note Off G5=0  Time=16700
Chn 1 Note On B5=64  Time=16896
Chn 1 Note On F#6=64  Time=16896
Chn 2 Note On B4=64  Time=16896
Chn 2 Note On D5=64  Time=16920
Chn 2 Note On F#5=64  Time=16944
Chn 1 Note Off B5=0  Time=17084
Chn 1 Note Off F#6=0  Time=17084
Chn 2 Note Off B4=0  Time=17084
Chn 2 Note Off D5=0  Time=17108
Chn 2 Note Off F#5=0  Time=17132
Chn 1 Note On D6=64  Time=17280
Chn 1 Note On B5=64  Time=17280
Chn 2 Note On G5=64  Time=17280
Chn 1 Note Off D6=0  Time=17468
Chn 1 Note Off B5=0  Time=17468
Chn 2 Note Off G5=0  Time=17468
Chn 1 Note On B5=64  Time=17664
Chn 1 Note On E6=64  Time=17664
Chn 2 Note On G5=64  Time=17664
Chn 2 Note On E5=64  Time=17664
Chn 1 Note Off B5=0  Time=18236
Chn 1 Note Off E6=0  Time=18236
Chn 2 Note Off G5=0  Time=18236
Chn 2 Note Off E5=0  Time=18236
Chn 1 Note On E5=64  Time=18336
Chn 1 Note Off E5=0  Time=18428
Chn 1 Note On C6=64  Time=18432
Chn 2 Note On A2=64  Time=18432
Chn 2 Note On A3=64  Time=18456
Chn 2 Note Off A2=0  Time=18524
Chn 2 Note Off A3=0  Time=18548
Chn 1 Note Off C6=0  Time=18620
Chn 2 Note On G#3=64  Time=18624
Chn 2 Note Off G#3=0  Time=18716
Chn 1 Note On D6=64  Time=18720
Chn 1 Note Off D6=0  Time=18812
Chn 1 Note On C6=64  Time=18816
Chn 2 Note On A3=64  Time=18816
Chn 2 Note Off A3=0  Time=18908
Chn 1 Note Off C6=0  Time=19004
Chn 2 Note On B3=64  Time=19008
Chn 2 Note Off B3=0  Time=19100
Chn 1 Note On B5=64  Time=19104
Chn 1 Note Off B5=0  Time=19196
Chn 1 Note On A5=64  Time=19200
Chn 2 Note On C4=64  Time=19200
Chn 2 Note Off C4=0  Time=19292
Chn 1 Note Off A5=0  Time=19388
Chn 2 Note On C#4=64  Time=19392
Chn 2 Note Off C#4=0  Time=19484
Chn 1 Note On G5=64  Time=19488
Chn 1 Note Off G5=0  Time=19580
Chn 1 Note On F#5=64  Time=19584
Chn 2 Note On D4=64  Time=19584
Chn 2 Note On D3=64  Time=19584
Chn 2 Note Off D4=0  Time=19676
Chn 2 Note Off D3=0  Time=19676
Chn 1 Note Off F#5=0  Time=19772
Chn 2 Note On C3=64  Time=19776
Chn 2 Note On C4=64  Time=19776
Chn 2 Note Off C3=0  Time=19868
Chn 2 Note Off C4=0  Time=19868
Chn 1 Note On A5=64  Time=19872
Chn 1 Note Off A5=0  Time=19964
Chn 1 Note On D6=64  Time=19968
Chn 2 Note On B2=64  Time=19968
Chn 2 Note On B3=64  Time=19992
Chn 2 Note Off B2=0  Time=20060
Chn 2 Note Off B3=0  Time=20084
Chn 1 Note Off D6=0  Time=20156
Chn 2 Note On B#3=64  Time=20160
Chn 2 Note Off B#3=0  Time=20252
Chn 1 Note On E6=64  Time=20256
Chn 1 Note Off E6=0  Time=20348
Chn 1 Note On D6=64  Time=20352
Chn 2 Note On B3=64  Time=20352
Chn 2 Note Off B3=0  Time=20444
Chn 1 Note Off D6=0  Time=20540
Chn 2 Note On C4=64  Time=20544
Chn 2 Note Off C4=0  Time=20636
Chn 1 Note On C6=64  Time=20640
Chn 1 Note Off C6=0  Time=20732
Chn 1 Note On B5=64  Time=20736
Chn 2 Note On D4=64  Time=20736
Chn 2 Note Off D4=0  Time=20828
Chn 1 Note Off B5=0  Time=20924
Chn 2 Note On D#4=64  Time=20928
Chn 2 Note Off D#4=0  Time=21020
Chn 1 Note On A5=64  Time=21024
Chn 1 Note Off A5=0  Time=21116
Chn 1 Note On G5=64  Time=21120
Chn 2 Note On E4=64  Time=21120
Chn 2 Note On E3=64  Time=21120
Chn 2 Note Off E4=0  Time=21212
Chn 2 Note Off E3=0  Time=21212
Chn 1 Note Off G5=0  Time=21308
Chn 2 Note On D3=64  Time=21312
Chn 2 Note On D4=64  Time=21312
Chn 2 Note Off D3=0  Time=21404
Chn 2 Note Off D4=0  Time=21404
Chn 1 Note On B5=64  Time=21408
Chn 1 Note Off B5=0  Time=21500
Chn 1 Note On E6=64  Time=21504
Chn 2 Note On C4=64  Time=21504
Chn 2 Note On C3=64  Time=21504
Chn 2 Note Off C4=0  Time=21596
Chn 2 Note Off C3=0  Time=21596
Chn 1 Note Off E6=0  Time=21692
Chn 2 Note On B3=64  Time=21696
Chn 2 Note On B2=64  Time=21696
Chn 2 Note Off B3=0  Time=21788
Chn 2 Note Off B2=0  Time=21788
Chn 1 Note On D6=64  Time=21792
Chn 1 Note Off D6=0  Time=21884
Chn 1 Note On C6=64  Time=21888
Chn 2 Note On A3=64  Time=21888
Chn 2 Note On A2=64  Time=21888
Chn 2 Note Off A3=0  Time=21980
Chn 2 Note Off A2=0  Time=21980
Chn 1 Note Off C6=0  Time=22076
Chn 2 Note On C4=64  Time=22080
Chn 2 Note Off C4=0  Time=22172
Chn 1 Note On E6=64  Time=22176
Chn 1 Note Off E6=0  Time=22268
Chn 1 Note On F#6=64  Time=22272
Chn 2 Note On D4=64  Time=22272
Chn 2 Note On D3=64  Time=22272
Chn 2 Note Off D4=0  Time=22364
Chn 2 Note Off D3=0  Time=22364
Chn 1 Note Off F#6=0  Time=22460
Chn 2 Note On C3=64  Time=22464
Chn 2 Note On C4=64  Time=22464
Chn 2 Note Off C3=0  Time=22556
Chn 2 Note Off C4=0  Time=22556
Chn 1 Note On E6=64  Time=22560
Chn 1 Note Off E6=0  Time=22652
Chn 1 Note On D6=64  Time=22656
Chn 2 Note On B3=64  Time=22656
Chn 2 Note On B2=64  Time=22656
Chn 2 Note Off B3=0  Time=22748
Chn 2 Note Off B2=0  Time=22748
Chn 1 Note Off D6=0  Time=22844
Chn 2 Note On D4=64  Time=22848
Chn 2 Note Off D4=0  Time=22940
Chn 1 Note On F#6=64  Time=22944
Chn 1 Note Off F#6=0  Time=23036
Chn 1 Note On G6=64  Time=23040
Chn 2 Note On E4=64  Time=23040
Chn 2 Note On E3=64  Time=23040
Chn 1 Note Off G6=0  Time=23132
Chn 2 Note Off E4=0  Time=23132
Chn 2 Note Off E3=0  Time=23132
Chn 2 Note On G4=64  Time=23232
Chn 2 Note Off G4=0  Time=23324
Chn 1 Note On F#6=64  Time=23328
Chn 1 Note Off F#6=0  Time=23420
Chn 1 Note On E6=64  Time=23424
Chn 2 Note On A4=64  Time=23424
Chn 2 Note On A3=64  Time=23424
Chn 2 Note Off A4=0  Time=23516
Chn 2 Note Off A3=0  Time=23516
Chn 1 Note Off E6=0  Time=23612
Chn 2 Note On B#3=64  Time=23616
Chn 2 Note On B#4=64  Time=23616
Chn 2 Note Off B#3=0  Time=23708
Chn 2 Note Off B#4=0  Time=23708
Chn 1 Note On F#6=64  Time=23712
Chn 1 Note Off F#6=0  Time=23804
Chn 1 Note On D#6=64  Time=23808
Chn 2 Note On B4=64  Time=23808
Chn 2 Note On B3=64  Time=23808
Chn 1 Note Off D#6=0  Time=23900
Chn 2 Note Off B4=0  Time=23900
Chn 2 Note Off B3=0  Time=23900
Chn 1 Note On F#6=64  Time=24096
Chn 1 Note On G6=64  Time=24120
Chn 1 Note On A6=64  Time=24144
Chn 1 Note On B#6=64  Time=24168
Chn 1 Note Off F#6=0  Time=24188
Chn 1 Note On B6=64  Time=24192
Chn 2 Note On B4=64  Time=24192
Chn 1 Note Off G6=0  Time=24212
Chn 2 Note On D#5=64  Time=24216
Chn 1 Note Off A6=0  Time=24236
Chn 2 Note On F#5=64  Time=24240
Chn 1 Note Off B#6=0  Time=24260
Chn 2 Note On B5=64  Time=24264
Chn 1 Note Off B6=0  Time=24284
Chn 2 Note Off B4=0  Time=24284
Chn 2 Note Off D#5=0  Time=24308
Chn 2 Note Off F#5=0  Time=24332
Chn 2 Note Off B5=0  Time=24356
Chn 1 Note On D#5=64  Time=24576
Chn 1 Note On B5=64  Time=24576
Chn 2 Note On B5=64  Time=24576
Chn 2 Note On F#5=64  Time=24576
Chn 1 Note Off D#5=0  Time=24668
Chn 1 Note Off B5=0  Time=24668
Chn 2 Note Off B5=0  Time=24668
Chn 2 Note Off F#5=0  Time=24668
Chn 1 Note On B5=64  Time=24960
Chn 1 Note On D#5=64  Time=24960
Chn 2 Note On F#5=64  Time=24960
Chn 2 Note On B5=64  Time=24960
Chn 1 Note Off B5=0  Time=25084
Chn 1 Note Off D#5=0  Time=25084
Chn 2 Note Off F#5=0  Time=25084
Chn 2 Note Off B5=0  Time=25084
Chn 1 Note On B5=64  Time=25088
Chn 1 Note On D#5=64  Time=25088
Chn 2 Note On F#5=64  Time=25088
Chn 2 Note On B5=64  Time=25088
Chn 1 Note Off B5=0  Time=25212
Chn 1 Note Off D#5=0  Time=25212
Chn 2 Note Off F#5=0  Time=25212
Chn 2 Note Off B5=0  Time=25212
Chn 1 Note On B5=64  Time=25216
Chn 1 Note On D#5=64  Time=25216
Chn 2 Note On F#5=64  Time=25216
Chn 2 Note On B5=64  Time=25216
Chn 1 Note Off B5=0  Time=25340
Chn 1 Note Off D#5=0  Time=25340
Chn 2 Note Off F#5=0  Time=25340
Chn 2 Note Off B5=0  Time=25340
Chn 1 Note On E5=64  Time=25344
Chn 1 Note On G5=64  Time=25344
Chn 2 Note On B5=64  Time=25344
Chn 2 Note On E5=64  Time=25344
Chn 1 Note Off E5=0  Time=25532
Chn 1 Note Off G5=0  Time=25532
Chn 2 Note Off B5=0  Time=25532
Chn 2 Note Off E5=0  Time=25532
Chn 1 Note On E5=64  Time=25728
Chn 2 Note On C5=64  Time=25728
Chn 2 Note On G5=64  Time=25728
Chn 2 Note On A5=64  Time=25728
Chn 1 Note Off E5=0  Time=25916
Chn 2 Note Off C5=0  Time=25916
Chn 2 Note Off G5=0  Time=25916
Chn 2 Note Off A5=0  Time=25916
Chn 1 Note On C5=64  Time=26112
Chn 2 Note On A4=64  Time=26112
Chn 2 Note On E5=64  Time=26112
Chn 2 Note On G5=64  Time=26112
Chn 1 Note Off C5=0  Time=26204
Chn 2 Note Off A4=0  Time=26300
Chn 2 Note Off E5=0  Time=26300
Chn 2 Note Off G5=0  Time=26300
Chn 1 Note On A4=64  Time=26496
Chn 2 Note On F#4=64  Time=26496
Chn 2 Note On C5=64  Time=26496
Chn 2 Note On E5=64  Time=26496
Chn 1 Note Off A4=0  Time=26588
Chn 2 Note Off F#4=0  Time=26684
Chn 2 Note Off C5=0  Time=26684
Chn 2 Note Off E5=0  Time=26684
Chn 1 Note On F#4=64  Time=26880
Chn 2 Note On B4=64  Time=26880
Chn 2 Note On D#4=64  Time=26880
Chn 2 Note Off B4=0  Time=26924
Chn 2 Note Off D#4=0  Time=26924
Chn 1 Note Off F#4=0  Time=26972
Chn 2 Note On B4=64  Time=27072
Chn 2 Note Off B4=0  Time=27116
Chn 1 Note On B#6=64  Time=27216
Chn 1 Note On F#6=64  Time=27264
Chn 1 Note On B6=64  Time=27264
Chn 2 Note On C#5=64  Time=27264
Chn 1 Note Off B#6=0  Time=27272
Chn 2 Note Off C#5=0  Time=27308
Chn 1 Note Off F#6=0  Time=27356
Chn 1 Note Off B6=0  Time=27356
Chn 2 Note On D#5=64  Time=27456
Chn 2 Note Off D#5=0  Time=27500
Chn 1 Note On F#6=64  Time=27612
Chn 1 Note On B5=64  Time=27648
Chn 1 Note On G6=64  Time=27648
Chn 2 Note On E5=64  Time=27648
Chn 1 Note Off F#6=0  Time=27668
Chn 2 Note Off E5=0  Time=27692
Chn 1 Note Off B5=0  Time=27740
Chn 1 Note Off G6=0  Time=27740
Chn 2 Note On F#5=64  Time=27840
Chn 2 Note Off F#5=0  Time=27884
Chn 1 Note On D#6=64  Time=27996
Chn 1 Note On E6=64  Time=28032
Chn 1 Note On B5=64  Time=28032
Chn 2 Note On G5=64  Time=28032
Chn 1 Note Off D#6=0  Time=28052
Chn 2 Note Off G5=0  Time=28076
Chn 1 Note Off E6=0  Time=28124
Chn 1 Note Off B5=0  Time=28124
Chn 2 Note On G#5=64  Time=28224
Chn 2 Note Off G#5=0  Time=28268
Chn 1 Note On B5=64  Time=28380
Chn 1 Note On C6=64  Time=28416
Chn 1 Note On E5=64  Time=28416
Chn 2 Note On A5=64  Time=28416
Chn 1 Note Off B5=0  Time=28436
Chn 2 Note Off A5=0  Time=28460
Chn 1 Note Off C6=0  Time=28508
Chn 1 Note Off E5=0  Time=28508
Chn 2 Note On B5=64  Time=28608
Chn 2 Note Off B5=0  Time=28652
Chn 1 Note On G#5=64  Time=28764
Chn 1 Note On E5=64  Time=28800
Chn 1 Note On A5=64  Time=28800
Chn 2 Note On C6=64  Time=28800
Chn 1 Note Off G#5=0  Time=28820
Chn 2 Note Off C6=0  Time=28844
Chn 1 Note Off E5=0  Time=28892
Chn 1 Note Off A5=0  Time=28892
Chn 2 Note On B5=64  Time=28992
Chn 2 Note Off B5=0  Time=29036
Chn 1 Note On B5=64  Time=29148
Chn 1 Note On F#5=64  Time=29184
Chn 1 Note On C6=64  Time=29184
Chn 2 Note On A5=64  Time=29184
Chn 1 Note Off B5=0  Time=29204
Chn 2 Note Off A5=0  Time=29228
Chn 1 Note Off F#5=0  Time=29276
Chn 1 Note Off C6=0  Time=29276
Chn 2 Note On G5=64  Time=29376
Chn 2 Note Off G5=0  Time=29420
Chn 1 Note On D#6=64  Time=29532
Chn 1 Note On C6=64  Time=29568
Chn 1 Note On E6=64  Time=29568
Chn 2 Note On F#5=64  Time=29568
Chn 1 Note Off D#6=0  Time=29588
Chn 2 Note Off F#5=0  Time=29612
Chn 1 Note Off C6=0  Time=29660
Chn 1 Note Off E6=0  Time=29660
Chn 2 Note On E5=64  Time=29760
Chn 2 Note Off E5=0  Time=29804
Chn 1 Note On F6=64  Time=29916
Chn 1 Note On B5=64  Time=29952
Chn 1 Note On F#6=64  Time=29952
Chn 2 Note On D#5=64  Time=29952
Chn 1 Note Off F6=0  Time=29972
Chn 2 Note Off D#5=0  Time=29996
Chn 1 Note Off B5=0  Time=30044
Chn 1 Note Off F#6=0  Time=30044
Chn 2 Note On C#5=64  Time=30144
Chn 2 Note Off C#5=0  Time=30188
Chn 1 Note On B#6=64  Time=30300
Chn 1 Note On D#6=64  Time=30336
Chn 1 Note On B6=64  Time=30336
Chn 2 Note On B4=64  Time=30336
Chn 1 Note Off B#6=0  Time=30356
Chn 2 Note Off B4=0  Time=30380
Chn 1 Note Off D#6=0  Time=30428
Chn 1 Note Off B6=0  Time=30428
Chn 1 Note On D#5=64  Time=30720
Chn 1 Note On B5=64  Time=30720
Chn 2 Note On B5=64  Time=30720
Chn 2 Note On F#5=64  Time=30720
Chn 1 Note Off D#5=0  Time=30812
Chn 1 Note Off B5=0  Time=30812
Chn 2 Note Off B5=0  Time=30812
Chn 2 Note Off F#5=0  Time=30812
Chn 1 Note On B5=64  Time=31104
Chn 1 Note On D#5=64  Time=31104
Chn 2 Note On F#5=64  Time=31104
Chn 2 Note On B5=64  Time=31104
Chn 1 Note Off B5=0  Time=31228
Chn 1 Note Off D#5=0  Time=31228
Chn 2 Note Off F#5=0  Time=31228
Chn 2 Note Off B5=0  Time=31228
Chn 1 Note On B5=64  Time=31232
Chn 1 Note On D#5=64  Time=31232
Chn 2 Note On F#5=64  Time=31232
Chn 2 Note On B5=64  Time=31232
Chn 1 Note Off B5=0  Time=31356
Chn 1 Note Off D#5=0  Time=31356
Chn 2 Note Off F#5=0  Time=31356
Chn 2 Note Off B5=0  Time=31356
Chn 1 Note On B5=64  Time=31360
Chn 1 Note On D#5=64  Time=31360
Chn 2 Note On F#5=64  Time=31360
Chn 2 Note On B5=64  Time=31360
Chn 1 Note Off B5=0  Time=31484
Chn 1 Note Off D#5=0  Time=31484
Chn 2 Note Off F#5=0  Time=31484
Chn 2 Note Off B5=0  Time=31484
Chn 1 Note On E5=64  Time=31488
Chn 1 Note On G5=64  Time=31488
Chn 2 Note On B5=64  Time=31488
Chn 2 Note On E5=64  Time=31488
Chn 1 Note Off E5=0  Time=31676
Chn 1 Note Off G5=0  Time=31676
Chn 2 Note Off B5=0  Time=31676
Chn 2 Note Off E5=0  Time=31676
Chn 1 Note On E5=64  Time=31872
Chn 2 Note On C5=64  Time=31872
Chn 2 Note On G5=64  Time=31872
Chn 2 Note On A5=64  Time=31872
Chn 1 Note Off E5=0  Time=32060
Chn 2 Note Off C5=0  Time=32060
Chn 2 Note Off G5=0  Time=32060
Chn 2 Note Off A5=0  Time=32060
Chn 1 Note On C5=64  Time=32256
Chn 2 Note On G4=64  Time=32256
Chn 2 Note On E4=64  Time=32256
Chn 2 Note On A3=64  Time=32256
Chn 1 Note Off C5=0  Time=32348
Chn 2 Note Off G4=0  Time=32348
Chn 2 Note Off E4=0  Time=32348
Chn 2 Note Off A3=0  Time=32348
Chn 1 Note On A4=64  Time=32640
Chn 1 Note On E4=64  Time=32640
Chn 2 Note On C4=64  Time=32640
Chn 2 Note On F#3=64  Time=32640
Chn 1 Note Off A4=0  Time=32732
Chn 1 Note Off E4=0  Time=32732
Chn 2 Note Off C4=0  Time=32732
Chn 2 Note Off F#3=0  Time=32732
Chn 2 Note On D#3=64  Time=33024
Chn 2 Note On B3=64  Time=33048
Chn 2 Note On F#4=64  Time=33072
Chn 2 Note Off D#3=0  Time=33116
Chn 2 Note Off B3=0  Time=33140
Chn 2 Note Off F#4=0  Time=33164
Chn 1 Note On B6=64  Time=33216
Chn 1 Note Off B6=0  Time=33260
Chn 1 Note On B#6=64  Time=33408
Chn 2 Note On F#3=64  Time=33408
Chn 2 Note On B2=64  Time=33408
Chn 1 Note Off B#6=0  Time=33452
Chn 2 Note Off F#3=0  Time=33500
Chn 2 Note Off B2=0  Time=33500
Chn 1 Note On A6=64  Time=33600
Chn 1 Note Off A6=0  Time=33644
Chn 1 Note On G6=64  Time=33792
Chn 2 Note On E3=64  Time=33792
Chn 2 Note On B3=64  Time=33792
Chn 1 Note Off G6=0  Time=33836
Chn 2 Note Off E3=0  Time=33884
Chn 2 Note Off B3=0  Time=33884
Chn 1 Note On F#6=64  Time=33984
Chn 1 Note Off F#6=0  Time=34028
Chn 1 Note On E6=64  Time=34176
Chn 2 Note On G3=64  Time=34176
Chn 2 Note On E4=64  Time=34176
Chn 1 Note Off E6=0  Time=34220
Chn 2 Note Off G3=0  Time=34268
Chn 2 Note Off E4=0  Time=34268
Chn 1 Note On D6=64  Time=34368
Chn 1 Note Off D6=0  Time=34412
Chn 1 Note On C6=64  Time=34560
Chn 2 Note On A3=64  Time=34560
Chn 2 Note On E4=64  Time=34560
Chn 1 Note Off C6=0  Time=34604
Chn 2 Note Off A3=0  Time=34652
Chn 2 Note Off E4=0  Time=34652
Chn 1 Note On B5=64  Time=34752
Chn 1 Note Off B5=0  Time=34796
Chn 1 Note On A5=64  Time=34944
Chn 2 Note On E4=64  Time=34944
Chn 2 Note On C4=64  Time=34944
Chn 1 Note Off A5=0  Time=34988
Chn 2 Note Off E4=0  Time=35036
Chn 2 Note Off C4=0  Time=35036
Chn 1 Note On G5=64  Time=35136
Chn 1 Note Off G5=0  Time=35180
Chn 1 Note On F#5=64  Time=35328
Chn 2 Note On D4=64  Time=35328
Chn 2 Note On A4=64  Time=35328
Chn 1 Note Off F#5=0  Time=35372
Chn 2 Note Off D4=0  Time=35420
Chn 2 Note Off A4=0  Time=35420
Chn 1 Note On E5=64  Time=35520
Chn 1 Note Off E5=0  Time=35564
Chn 1 Note On D5=64  Time=35712
Chn 2 Note On D4=64  Time=35712
Chn 2 Note On F#4=64  Time=35736
Chn 1 Note Off D5=0  Time=35756
Chn 2 Note On A4=64  Time=35760
Chn 2 Note Off D4=0  Time=35804
Chn 2 Note Off F#4=0  Time=35828
Chn 2 Note Off A4=0  Time=35852
Chn 2 Note On C5=64  Time=35904
Chn 2 Note On C4=64  Time=35904
Chn 2 Note Off C5=0  Time=35996
Chn 2 Note Off C4=0  Time=35996
Chn 1 Note On C#7=64  Time=36060
Chn 1 Note On F#6=64  Time=36096
Chn 1 Note On D7=64  Time=36096
Chn 2 Note On B3=64  Time=36096
Chn 2 Note On B4=64  Time=36096
Chn 1 Note Off C#7=0  Time=36116
Chn 1 Note Off F#6=0  Time=36188
Chn 1 Note Off D7=0  Time=36188
Chn 2 Note Off B3=0  Time=36188
Chn 2 Note Off B4=0  Time=36188
Chn 2 Note On A4=64  Time=36288
Chn 2 Note On A3=64  Time=36288
Chn 2 Note Off A4=0  Time=36380
Chn 2 Note Off A3=0  Time=36380
Chn 1 Note On D5=64  Time=36480
Chn 1 Note On C5=64  Time=36480
Chn 1 Note On A4=64  Time=36480
Chn 2 Note On G3=64  Time=36480
Chn 2 Note On G4=64  Time=36480
Chn 1 Note Off D5=0  Time=36572
Chn 1 Note Off C5=0  Time=36572
Chn 1 Note Off A4=0  Time=36572
Chn 2 Note Off G3=0  Time=36572
Chn 2 Note Off G4=0  Time=36572
Chn 2 Note On F#4=64  Time=36672
Chn 2 Note On F#3=64  Time=36672
Chn 2 Note Off F#4=0  Time=36764
Chn 2 Note Off F#3=1  Time=36764
Chn 2 Note Off F#3=0  Time=36864
